<svg aria-hidden="true" style="position: absolute; width: 0; height: 0; overflow: hidden;" version="1.1" xmlns="http://www.w3.org/2000/svg" xmlns:xlink="http://www.w3.org/1999/xlink">
<defs>
<symbol id="icon-no-image-placeholder" viewBox="0 0 26 32">
<path fill="#eee" style="fill: var(--color1, #eee)" d="M0.553 0h24.886c0.305 0 0.553 0.247 0.553 0.553v30.894c0 0.305-0.247 0.553-0.553 0.553h-24.886c-0.305 0-0.553-0.247-0.553-0.553v-30.894c0-0.305 0.247-0.553 0.553-0.553z"></path>
<path fill="#9f9f9f" style="fill: var(--color2, #9f9f9f)" d="M6.75 9.868l4.969-1.457c0.351-0.103 0.718 0.098 0.821 0.449l1.634 5.572c0.103 0.351-0.098 0.718-0.449 0.821l-4.969 1.457c-0.351 0.103-0.718-0.098-0.821-0.449l-1.634-5.572c-0.103-0.351 0.098-0.718 0.449-0.821z"></path>
<path fill="#000" style="fill: var(--color3, #000); stroke: var(--color4, #fff)" stroke="#fff" stroke-linejoin="round" stroke-linecap="round" stroke-miterlimit="4" stroke-width="0.4255" d="M11.307 5.219l7.461 2.185c0.192 0.056 0.302 0.257 0.246 0.449l-2.365 8.076c-0.056 0.192-0.257 0.302-0.449 0.246l-7.461-2.185c-0.192-0.056-0.302-0.257-0.246-0.449l2.365-8.076c0.056-0.192 0.257-0.302 0.449-0.246z"></path>
<path fill="#ccc" style="fill: var(--color5, #ccc); stroke: var(--color4, #fff)" stroke="#fff" stroke-linejoin="round" stroke-linecap="round" stroke-miterlimit="4" stroke-width="1.0302" d="M11.627 6.18l6.414 1.878-1.721 5.877-6.414-1.878 1.721-5.877z"></path>
<path fill="#fff" style="fill: var(--color4, #fff); stroke: var(--color4, #fff)" stroke="#fff" stroke-linejoin="round" stroke-linecap="round" stroke-miterlimit="4" stroke-width="1.0302" d="M11.627 6.18l6.414 1.878-0.803 2.743-6.414-1.878 0.803-2.743z"></path>
<path fill="#ccc" style="fill: var(--color5, #ccc); stroke: var(--color4, #fff)" stroke="#fff" stroke-linejoin="round" stroke-linecap="round" stroke-miterlimit="4" stroke-width="1.0302" d="M11.216 9.037l0.707-0.552 0.963-0.358 0.136 0.303 0.326-0.453 0.118-0.008 0.282-0.317 1.662 3.039"></path>
<path fill="#b3b3b3" style="fill: var(--color6, #b3b3b3); stroke: var(--color4, #fff)" stroke="#fff" stroke-linejoin="round" stroke-linecap="round" stroke-miterlimit="4" stroke-width="1.0302" d="M13.748 7.652c-0.010 0.231-0.026 0.461-0.049 0.691-0.017 0.174-0.038 0.349-0.063 0.522l-0.261-0.178-0.49-0.56-0.108 0.627-0.116 0.318 0.015 0.435 1.001 0.126 1.179 0.045-0.328-1.194-0.184 0.158-0.27-0.393z"></path>
<path fill="#ccc" style="fill: var(--color5, #ccc); stroke: var(--color4, #fff)" stroke="#fff" stroke-linejoin="round" stroke-linecap="round" stroke-miterlimit="4" stroke-width="1.0302" d="M12.668 9.888l1.354-0.659 0.279-0.056 0.478-0.487 0.422-0.184 1.662 3.039"></path>
<path fill="#b3b3b3" style="fill: var(--color6, #b3b3b3); stroke: var(--color4, #fff)" stroke="#fff" stroke-linejoin="round" stroke-linecap="round" stroke-miterlimit="4" stroke-width="1.0302" d="M15.201 8.503l0.16 1.194-0.23 0.786 0.219 0.34c0.11-0.059 0.23-0.1 0.353-0.119 0.22-0.035 0.445-0.002 0.668 0.002 0.091 0.002 0.183-0.001 0.268-0.033 0.022-0.008 0.042-0.018 0.062-0.030l-0.392-0.115-0.374-0.685-0.203-0.753-0.168 0.076z"></path>
<path fill="#fff" style="fill: var(--color4, #fff); stroke: var(--color4, #fff)" stroke="#fff" stroke-linejoin="round" stroke-linecap="round" stroke-miterlimit="4" stroke-width="1.0302" d="M11.865 12.63c0.031-0.127-0.048-0.264 0.341-0.335 0.477-0.088 1.781 0.013 2.216-0.202 0.322-0.159-0.776-0.761-0.493-0.982 0.128-0.1 0.847-0.035 1.189-0.081 0.323-0.044 0.273-0.201 0.525-0.271 0.243-0.068 0.968 0.003 1.058-0.116-0.176 0.098-0.977 0.003-1.29 0.048-0.33 0.047-0.357 0.178-0.758 0.196-0.433 0.019-1.243-0.072-1.458 0.006-0.451 0.164 0.449 0.736-0.018 0.846-0.632 0.149-2.116-0.006-2.764 0.041-0.448 0.033-0.439 0.123-0.506 0.277"></path>
</symbol>
</defs>
</svg>
